{
    "asset" : {
        "generator" : "Khronos glTF Blender I/O v3.2.40",
        "version" : "2.0"
    },
    "scene" : 0,
    "scenes" : [
        {
            "name" : "Scene",
            "nodes" : [
                4
            ]
        }
    ],
    "nodes" : [
        {
            "name" : "Bone.002",
            "translation" : [
                0,
                2.134281873703003,
                0
            ]
        },
        {
            "children" : [
                0
            ],
            "name" : "Bone.001",
            "translation" : [
                0,
                1.9385063648223877,
                0
            ]
        },
        {
            "children" : [
                1
            ],
            "name" : "Bone"
        },
        {
            "mesh" : 0,
            "name" : "Cube",
            "skin" : 0
        },
        {
            "children" : [
                3,
                2
            ],
            "name" : "\u9aa8\u67b6"
        }
    ],
    "materials" : [
        {
            "doubleSided" : true,
            "name" : "Material",
            "pbrMetallicRoughness" : {
                "baseColorFactor" : [
                    0.800000011920929,
                    0.800000011920929,
                    0.800000011920929,
                    1
                ],
                "metallicFactor" : 0,
                "roughnessFactor" : 0.4000000059604645
            }
        }
    ],
    "meshes" : [
        {
            "name" : "Cube",
            "primitives" : [
                {
                    "attributes" : {
                        "POSITION" : 0,
                        "NORMAL" : 1,
                        "TANGENT" : 2,
                        "TEXCOORD_0" : 3,
                        "JOINTS_0" : 4,
                        "WEIGHTS_0" : 5
                    },
                    "indices" : 6,
                    "material" : 0
                }
            ]
        }
    ],
    "skins" : [
        {
            "inverseBindMatrices" : 7,
            "joints" : [
                2,
                1,
                0
            ],
            "name" : "\u9aa8\u67b6"
        }
    ],
    "accessors" : [
        {
            "bufferView" : 0,
            "componentType" : 5126,
            "count" : 146,
            "max" : [
                1.0865905284881592,
                6.38890266418457,
                1.0865905284881592
            ],
            "min" : [
                -1.0865905284881592,
                0,
                -1.0865905284881592
            ],
            "type" : "VEC3"
        },
        {
            "bufferView" : 1,
            "componentType" : 5126,
            "count" : 146,
            "type" : "VEC3"
        },
        {
            "bufferView" : 2,
            "componentType" : 5126,
            "count" : 146,
            "type" : "VEC4"
        },
        {
            "bufferView" : 3,
            "componentType" : 5126,
            "count" : 146,
            "type" : "VEC2"
        },
        {
            "bufferView" : 4,
            "componentType" : 5121,
            "count" : 146,
            "type" : "VEC4"
        },
        {
            "bufferView" : 5,
            "componentType" : 5126,
            "count" : 146,
            "type" : "VEC4"
        },
        {
            "bufferView" : 6,
            "componentType" : 5123,
            "count" : 276,
            "type" : "SCALAR"
        },
        {
            "bufferView" : 7,
            "componentType" : 5126,
            "count" : 3,
            "type" : "MAT4"
        }
    ],
    "bufferViews" : [
        {
            "buffer" : 0,
            "byteLength" : 1752,
            "byteOffset" : 0
        },
        {
            "buffer" : 0,
            "byteLength" : 1752,
            "byteOffset" : 1752
        },
        {
            "buffer" : 0,
            "byteLength" : 2336,
            "byteOffset" : 3504
        },
        {
            "buffer" : 0,
            "byteLength" : 1168,
            "byteOffset" : 5840
        },
        {
            "buffer" : 0,
            "byteLength" : 584,
            "byteOffset" : 7008
        },
        {
            "buffer" : 0,
            "byteLength" : 2336,
            "byteOffset" : 7592
        },
        {
            "buffer" : 0,
            "byteLength" : 552,
            "byteOffset" : 9928
        },
        {
            "buffer" : 0,
            "byteLength" : 192,
            "byteOffset" : 10480
        }
    ],
    "buffers" : [
        {
            "byteLength" : 10672,
            "uri" : "data:application/octet-stream;base64,"
        }
    ]
}
